<svg width="512" height="512" viewBox="0 0 512 512" xmlns="http://www.w3.org/2000/svg">
  <rect width="512" height="512" rx="80" fill="#0a0a0f"/>
  <!-- Livro aberto -->
  <rect x="90" y="126" width="148" height="260" rx="10" fill="#e8ff47" opacity="0.92"/>
  <rect x="274" y="126" width="148" height="260" rx="10" fill="#e8ff47" opacity="0.72"/>
  <rect x="233" y="116" width="46" height="280" rx="6" fill="#e8ff47"/>
  <!-- Linhas página esquerda -->
  <rect x="110" y="170" width="108" height="9" rx="4" fill="#0a0a0f" opacity="0.35"/>
  <rect x="110" y="196" width="86" height="7" rx="3" fill="#0a0a0f" opacity="0.35"/>
  <rect x="110" y="218" width="96" height="7" rx="3" fill="#0a0a0f" opacity="0.35"/>
  <rect x="110" y="240" width="72" height="7" rx="3" fill="#0a0a0f" opacity="0.35"/>
  <rect x="110" y="262" width="100" height="7" rx="3" fill="#0a0a0f" opacity="0.35"/>
  <rect x="110" y="284" width="80" height="7" rx="3" fill="#0a0a0f" opacity="0.35"/>
  <rect x="110" y="306" width="90" height="7" rx="3" fill="#0a0a0f" opacity="0.35"/>
  <!-- Linhas página direita -->
  <rect x="294" y="170" width="108" height="9" rx="4" fill="#0a0a0f" opacity="0.25"/>
  <rect x="294" y="196" width="86" height="7" rx="3" fill="#0a0a0f" opacity="0.25"/>
  <rect x="294" y="218" width="96" height="7" rx="3" fill="#0a0a0f" opacity="0.25"/>
  <rect x="294" y="240" width="72" height="7" rx="3" fill="#0a0a0f" opacity="0.25"/>
  <rect x="294" y="262" width="100" height="7" rx="3" fill="#0a0a0f" opacity="0.25"/>
  <rect x="294" y="284" width="80" height="7" rx="3" fill="#0a0a0f" opacity="0.25"/>
  <rect x="294" y="306" width="90" height="7" rx="3" fill="#0a0a0f" opacity="0.25"/>
  <!-- Rodapé / sombra base do livro -->
  <rect x="90" y="376" width="332" height="14" rx="7" fill="#e8ff47" opacity="0.25"/>
</svg>
